<?xml version="1.0" encoding="UTF-8"?> <svg xmlns="http://www.w3.org/2000/svg" id="Warstwa_2" viewBox="0 0 345.5 208.83"><defs><style>.cls-1{fill:#02af9a;}</style></defs><g id="logo"><g><g><g><path d="m54.96,199.5c0,2.64-1.52,4.83-4.13,4.83s-4.18-2.19-4.18-4.83,1.52-4.74,4.18-4.74,4.13,2.15,4.13,4.74Zm-2.24.02c0-1.66-.51-2.71-1.91-2.71s-1.91,1.05-1.91,2.71.51,2.87,1.91,2.87,1.91-1.21,1.91-2.87Z"></path><path d="m66.56,204.21h-1.84l-.16-1.21c-.79,1.17-1.54,1.33-2.57,1.33-2.45,0-3.52-2.19-3.52-4.83s1.12-4.74,3.66-4.74c.44,0,1.38,0,2.19,1.05v-4.85h2.24v13.25Zm-2.24-4.69c0-1.63-.51-2.73-1.87-2.73s-1.7,1.12-1.7,2.73.33,2.87,1.7,2.87,1.87-1.21,1.87-2.87Z"></path><path d="m71.69,194.88h1.7l.26,1.14c.54-1.03,1.28-1.26,2.19-1.26,2.82,0,3.27,1.94,3.27,4.15v5.3h-2.24v-4.95c0-1.33,0-2.47-1.56-2.47-1.19,0-1.38,1.14-1.38,2.47v4.95h-2.24v-9.33Z"></path><path d="m83.83,195.42c.89-.63,2.5-.65,2.82-.65,2.73,0,3.52,1.63,3.52,4.25v5.2h-1.63l-.3-1.05c-.47,1.17-1.89,1.17-2.12,1.17-1,0-2.8-.72-2.8-2.99,0-1.87.72-3.01,2.61-3.01.84,0,1.52.19,2.01.61,0-1.42-.21-2.12-1.49-2.12-.26,0-1.47.02-1.91.26l-.7-1.66Zm4.11,6.28v-.89c-.33-.44-.75-.7-1.4-.7s-.98.44-.98,1.12c0,.93.68,1.17,1.24,1.17.21,0,.77-.14,1.14-.7Z"></path><path d="m99.3,198.96l-2.5,5.6-3.59-9.68h2.36l1.56,4.25,2.17-4.76,2.17,4.76,1.56-4.25h2.36l-3.59,9.68-2.5-5.6Z"></path><path d="m110.38,191.12c.77,0,1.4.65,1.4,1.4s-.63,1.35-1.4,1.35c-.72,0-1.35-.61-1.35-1.35s.63-1.4,1.35-1.4Zm-1.14,3.76h2.24v9.33h-2.24v-9.33Z"></path><path d="m116.42,195.42c.89-.63,2.5-.65,2.82-.65,2.73,0,3.52,1.63,3.52,4.25v5.2h-1.63l-.3-1.05c-.47,1.17-1.89,1.17-2.12,1.17-1,0-2.8-.72-2.8-2.99,0-1.87.72-3.01,2.61-3.01.84,0,1.52.19,2.01.61,0-1.42-.21-2.12-1.49-2.12-.26,0-1.47.02-1.91.26l-.7-1.66Zm4.11,6.28v-.89c-.33-.44-.75-.7-1.4-.7s-.98.44-.98,1.12c0,.93.68,1.17,1.24,1.17.21,0,.77-.14,1.14-.7Z"></path><path d="m127.79,190.96h2.24v13.25h-2.24v-13.25Z"></path><path d="m135.16,194.88h1.7l.26,1.14c.54-1.03,1.28-1.26,2.19-1.26,2.82,0,3.27,1.94,3.27,4.15v5.3h-2.24v-4.95c0-1.33,0-2.47-1.56-2.47-1.19,0-1.38,1.14-1.38,2.47v4.95h-2.24v-9.33Z"></path><path d="m153.78,203.16c-.89.82-1.75,1.17-2.89,1.17-2.68,0-4.22-1.42-4.22-4.71,0-2.59.68-4.85,3.83-4.85,2.54,0,3.87,1.56,3.87,4.57v1.14h-5.39c0,1.54,1.1,1.91,1.89,1.91.68,0,1.31-.26,1.94-.72l.98,1.49Zm-4.81-4.55h3.2c0-1.28-.54-1.77-1.63-1.77s-1.56.56-1.56,1.77Z"></path><path d="m167.8,202.2h3.08v2.01h-6.39l3.1-7.28h-3.1v-2.05h6.42l-3.1,7.33Zm.56-9.1h-1.96l1.56-3.17h2.4l-2.01,3.17Z"></path><path d="m175.34,194.88h1.8l.23,1.03c.86-.96,1.49-1.14,2.24-1.14h.37v2.03h-.42c-1.87,0-1.98,1.21-1.98,2.47v4.95h-2.24v-9.33Z"></path><path d="m191.2,199.5c0,2.64-1.52,4.83-4.13,4.83s-4.18-2.19-4.18-4.83,1.52-4.74,4.18-4.74,4.13,2.15,4.13,4.74Zm-2.24.02c0-1.66-.51-2.71-1.91-2.71s-1.91,1.05-1.91,2.71.51,2.87,1.91,2.87,1.91-1.21,1.91-2.87Zm-.93-6.42h-1.96l1.56-3.17h2.4l-2.01,3.17Z"></path><path d="m202.8,204.21h-1.84l-.16-1.21c-.79,1.17-1.54,1.33-2.57,1.33-2.45,0-3.52-2.19-3.52-4.83s1.12-4.74,3.66-4.74c.44,0,1.38,0,2.19,1.05v-4.85h2.24v13.25Zm-2.24-4.69c0-1.63-.51-2.73-1.87-2.73s-1.7,1.12-1.7,2.73.33,2.87,1.7,2.87,1.87-1.21,1.87-2.87Z"></path><path d="m206.42,196.42l1.63-.37v-5.09h2.24v4.55l1.82-.42v1.98l-1.82.42v6.72h-2.24v-6.18l-1.63.37v-1.98Z"></path><path d="m215.54,195.42c.89-.63,2.5-.65,2.82-.65,2.73,0,3.52,1.63,3.52,4.25v5.2h-1.63l-.3-1.05c-.47,1.17-1.89,1.17-2.12,1.17-1,0-2.8-.72-2.8-2.99,0-1.87.72-3.01,2.61-3.01.84,0,1.52.19,2.01.61,0-1.42-.21-2.12-1.49-2.12-.26,0-1.47.02-1.91.26l-.7-1.66Zm4.11,6.28v-.89c-.33-.44-.75-.7-1.4-.7s-.98.44-.98,1.12c0,.93.68,1.17,1.24,1.17.21,0,.77-.14,1.14-.7Z"></path><path d="m239.71,203.16c-.89.82-1.75,1.17-2.89,1.17-2.68,0-4.22-1.42-4.22-4.71,0-2.59.68-4.85,3.83-4.85,2.54,0,3.87,1.56,3.87,4.57v1.14h-5.39c0,1.54,1.1,1.91,1.89,1.91.68,0,1.31-.26,1.94-.72l.98,1.49Zm-4.81-4.55h3.2c0-1.28-.54-1.77-1.63-1.77s-1.56.56-1.56,1.77Z"></path><path d="m244.61,194.88h1.7l.26,1.14c.54-1.03,1.28-1.26,2.19-1.26,2.82,0,3.27,1.94,3.27,4.15v5.3h-2.24v-4.95c0-1.33,0-2.47-1.56-2.47-1.19,0-1.38,1.14-1.38,2.47v4.95h-2.24v-9.33Z"></path><path d="m263.23,203.16c-.89.82-1.75,1.17-2.89,1.17-2.68,0-4.22-1.42-4.22-4.71,0-2.59.68-4.85,3.83-4.85,2.54,0,3.87,1.56,3.87,4.57v1.14h-5.39c0,1.54,1.1,1.91,1.89,1.91.68,0,1.31-.26,1.94-.72l.98,1.49Zm-4.81-4.55h3.2c0-1.28-.54-1.77-1.63-1.77s-1.56.56-1.56,1.77Z"></path><path d="m268.13,194.88h1.8l.23,1.03c.86-.96,1.49-1.14,2.24-1.14h.37v2.03h-.42c-1.87,0-1.98,1.21-1.98,2.47v4.95h-2.24v-9.33Z"></path><path d="m277.37,206.12c1.03.61,1.59.75,2.26.75,1.7,0,1.91-.93,1.91-2.31v-1.28c-.72.91-1.4,1.05-2.33,1.05-2.45,0-3.52-2.19-3.52-4.83s1.12-4.74,3.66-4.74c.44,0,1.52.02,2.47,1.26l.26-1.14h1.7v9.26c0,3.34-1.82,4.69-3.9,4.69-1.21,0-2.31-.21-3.34-1.1l.82-1.61Zm4.18-6.6c0-1.63-.51-2.73-1.87-2.73s-1.7,1.12-1.7,2.73.33,2.87,1.7,2.87,1.87-1.21,1.87-2.87Z"></path><path d="m290.07,191.12c.77,0,1.4.65,1.4,1.4s-.63,1.35-1.4,1.35c-.72,0-1.35-.61-1.35-1.35s.63-1.4,1.35-1.4Zm-1.14,3.76h2.24v9.33h-2.24v-9.33Z"></path><path d="m297.44,191.12c.77,0,1.4.65,1.4,1.4s-.63,1.35-1.4,1.35c-.72,0-1.35-.61-1.35-1.35s.63-1.4,1.35-1.4Zm-1.14,3.76h2.24v9.33h-2.24v-9.33Z"></path></g><g><path d="m3.17,164.92c.38.19.83.45,1.38.78.54.33,1.19.65,1.94.95.75.31,1.65.56,2.68.78,1.03.21,2.21.32,3.53.32,1.65,0,2.85-.4,3.6-1.2.75-.8,1.13-1.79,1.13-2.97s-.44-2.19-1.31-2.9c-.87-.71-1.94-1.34-3.21-1.91-1.27-.57-2.67-1.14-4.2-1.73-1.53-.59-2.93-1.36-4.2-2.3-1.27-.94-2.34-2.16-3.21-3.64-.87-1.48-1.31-3.41-1.31-5.76,0-1.6.22-3.11.67-4.53.45-1.41,1.16-2.64,2.15-3.68.99-1.04,2.28-1.85,3.88-2.44,1.6-.59,3.53-.88,5.79-.88,2.4,0,4.55.34,6.46,1.03,1.91.69,3.37,1.29,4.41,1.82l-2.89,6.46c-.94-.52-2.14-.96-3.6-1.34-1.46-.38-2.85-.56-4.16-.56-1.13,0-2.01.2-2.65.6-.64.4-1.11.85-1.41,1.34-.31.49-.49.99-.56,1.48-.07.49-.11.86-.11,1.09,0,1.22.42,2.2,1.27,2.93.85.73,1.92,1.38,3.21,1.94,1.29.56,2.69,1.14,4.2,1.73,1.5.59,2.9,1.36,4.2,2.33,1.29.97,2.36,2.19,3.21,3.67.85,1.48,1.27,3.42,1.27,5.82,0,1.65-.34,3.13-1.02,4.44-.68,1.32-1.56,2.43-2.65,3.35-1.08.92-2.33,1.62-3.74,2.12-1.41.49-2.82.74-4.23.74-1.22,0-2.39-.04-3.49-.11-1.11-.07-2.19-.25-3.25-.53-1.06-.28-2.13-.69-3.21-1.24-1.08-.54-2.21-1.26-3.39-2.15l2.82-5.86Z"></path><path d="m47.76,174.8c-2.82,0-5.29-.55-7.41-1.66-2.12-1.1-3.89-2.59-5.33-4.44-1.44-1.86-2.5-4.04-3.21-6.56-.71-2.52-1.06-5.19-1.06-8.01s.35-5.47,1.06-7.94,1.77-4.61,3.21-6.42c1.43-1.81,3.21-3.25,5.33-4.3,2.12-1.06,4.59-1.59,7.41-1.59s5.29.53,7.41,1.59c2.12,1.06,3.87,2.49,5.26,4.3,1.39,1.81,2.43,3.95,3.14,6.42.71,2.47,1.06,5.11,1.06,7.94s-.35,5.49-1.06,8.01c-.71,2.52-1.75,4.7-3.14,6.56-1.39,1.86-3.14,3.34-5.26,4.44-2.12,1.11-4.59,1.66-7.41,1.66Zm-.07-33.51c-1.83,0-3.33.34-4.48,1.02-1.15.68-2.07,1.6-2.75,2.75-.68,1.15-1.14,2.53-1.38,4.13-.24,1.6-.35,3.32-.35,5.15s.12,3.56.35,5.19c.24,1.62.69,3.05,1.38,4.27.68,1.22,1.6,2.19,2.75,2.89,1.15.71,2.65,1.06,4.48,1.06s3.4-.35,4.55-1.06c1.15-.71,2.06-1.67,2.72-2.89.66-1.22,1.1-2.65,1.34-4.27.24-1.62.35-3.35.35-5.19s-.12-3.55-.35-5.15c-.24-1.6-.68-2.97-1.34-4.13-.66-1.15-1.56-2.07-2.72-2.75-1.15-.68-2.67-1.02-4.55-1.02Z"></path><path d="m72.03,134.37h7.97v32.95h15.66v7.13h-23.64v-40.07Z"></path><path d="m131.79,175.5l-18.63-41.13h8.89l9.74,22.72,9.74-22.72h8.89l-18.63,41.13Z"></path><path d="m169.54,174.8c-2.82,0-5.29-.55-7.41-1.66-2.12-1.1-3.89-2.59-5.33-4.44-1.44-1.86-2.5-4.04-3.21-6.56-.71-2.52-1.06-5.19-1.06-8.01s.35-5.47,1.06-7.94,1.77-4.61,3.21-6.42c1.43-1.81,3.21-3.25,5.33-4.3,2.12-1.06,4.59-1.59,7.41-1.59s5.29.53,7.41,1.59c2.12,1.06,3.87,2.49,5.26,4.3,1.39,1.81,2.43,3.95,3.14,6.42.71,2.47,1.06,5.11,1.06,7.94s-.35,5.49-1.06,8.01c-.71,2.52-1.75,4.7-3.14,6.56-1.39,1.86-3.14,3.34-5.26,4.44-2.12,1.11-4.59,1.66-7.41,1.66Zm-.07-33.51c-1.83,0-3.33.34-4.48,1.02-1.15.68-2.07,1.6-2.75,2.75-.68,1.15-1.14,2.53-1.38,4.13-.24,1.6-.35,3.32-.35,5.15s.12,3.56.35,5.19c.24,1.62.69,3.05,1.38,4.27.68,1.22,1.6,2.19,2.75,2.89,1.15.71,2.65,1.06,4.48,1.06s3.4-.35,4.55-1.06c1.15-.71,2.06-1.67,2.72-2.89.66-1.22,1.1-2.65,1.34-4.27.24-1.62.35-3.35.35-5.19s-.12-3.55-.35-5.15c-.24-1.6-.68-2.97-1.34-4.13-.66-1.15-1.56-2.07-2.72-2.75-1.15-.68-2.67-1.02-4.55-1.02Z"></path><path d="m193.81,134.37h7.97v32.95h15.66v7.13h-23.64v-40.07Z"></path><path d="m233.04,174.45h-7.97v-32.81h-8.75v-7.27h25.19v7.27h-8.47v32.81Z"></path><path d="m266.48,168.1h-14.04l-2.75,6.35h-8.89l18.63-41.13,18.63,41.13h-8.89l-2.68-6.35Zm-3.1-7.13l-3.95-9.24-3.95,9.24h7.9Z"></path><path d="m307.75,171.84c-1.22,1.08-2.65,1.85-4.27,2.29-1.62.45-3.4.67-5.33.67-2.82,0-5.39-.54-7.69-1.62-2.31-1.08-4.27-2.54-5.89-4.37-1.62-1.83-2.88-4-3.77-6.49-.89-2.49-1.34-5.15-1.34-7.97s.45-5.48,1.34-7.97c.89-2.49,2.15-4.66,3.77-6.49,1.62-1.83,3.59-3.29,5.89-4.37,2.3-1.08,4.87-1.62,7.69-1.62s5.27.49,7.34,1.48c2.07.99,4.07,2.52,6,4.59l-5.01,4.73c-.75-.71-1.44-1.27-2.05-1.69-.61-.42-1.24-.76-1.87-1.02-.64-.26-1.31-.43-2.01-.53-.71-.09-1.53-.14-2.47-.14-1.83,0-3.42.34-4.76,1.02-1.34.68-2.45,1.62-3.32,2.82-.87,1.2-1.52,2.61-1.94,4.23-.42,1.62-.64,3.35-.64,5.19s.21,3.55.64,5.15c.42,1.6,1.07,3,1.94,4.2.87,1.2,1.98,2.14,3.32,2.82,1.34.68,2.93,1.02,4.76,1.02,1.6,0,2.9-.11,3.92-.32,1.01-.21,2.01-.67,3-1.38v-6.21h-7.2v-7.13h15.17v21.73h-4.09l-1.13-2.61Z"></path><path d="m329.76,167.18h15.73v7.27h-23.71v-40.07h23.71v7.27h-15.73v9.81h11.78v7.06h-11.78v8.68Z"></path></g></g><g><g><path d="m181.25,103.98l21.25-46.92h-19.78l-21.25,46.92h19.78Z"></path><path d="m207.6,46.92L228.85,0h-19.78l-21.25,46.92h19.78Z"></path><g><path d="m151.33,103.98l-21.25-46.92h-19.78s21.25,46.92,21.25,46.92h19.78Z"></path><path d="m124.98,46.92L103.73,0h-19.78s21.25,46.92,21.25,46.92h19.78Z"></path></g></g><g><polygon class="cls-1" points="213.52 57.06 192.12 103.98 193.48 103.98 214.87 57.06 213.52 57.06"></polygon><polygon class="cls-1" points="218.31 57.06 196.92 103.98 198.56 103.98 219.95 57.06 218.31 57.06"></polygon><polygon class="cls-1" points="223.1 57.06 201.71 103.98 203.64 103.98 225.03 57.06 223.1 57.06"></polygon><polygon class="cls-1" points="227.89 57.06 206.5 103.98 208.72 103.98 230.11 57.06 227.89 57.06"></polygon><polygon class="cls-1" points="232.68 57.06 211.29 103.98 213.8 103.98 235.19 57.06 232.68 57.06"></polygon></g><g><polygon class="cls-1" points="239.87 0 218.48 46.92 219.83 46.92 241.23 0 239.87 0"></polygon><polygon class="cls-1" points="244.66 0 223.27 46.92 224.91 46.92 246.3 0 244.66 0"></polygon><polygon class="cls-1" points="249.45 0 228.06 46.92 229.99 46.92 251.38 0 249.45 0"></polygon><polygon class="cls-1" points="254.24 0 232.85 46.92 235.07 46.92 256.46 0 254.24 0"></polygon><polygon class="cls-1" points="259.04 0 237.64 46.92 240.15 46.92 261.54 0 259.04 0"></polygon></g></g></g></g></svg> 